<?xml version="1.0" encoding="utf-8"?>
<!-- Generator: Adobe Illustrator 24.3.0, SVG Export Plug-In . SVG Version: 6.00 Build 0)  -->
<svg version="1.1" id="Layer_1" xmlns="http://www.w3.org/2000/svg" xmlns:xlink="http://www.w3.org/1999/xlink" x="0px" y="0px"
	 viewBox="0 0 1280 1273.4" style="enable-background:new 0 0 1280 1273.4;" xml:space="preserve">
<g transform="translate(0.000000,1264.000000) scale(0.100000,-0.100000)">
	<path style="fill:#DADADA;" d="M1605.3,10348.6c-160.5-190.2-241.1-296.3-231.2-303.3c5.7-4.2-26.9-52.3-84.1-125.2
		c-52.3-65.1-116.7-152-142.8-192.3c-135.1-210-246.8-395.3-318.9-532.5c-44.5-84.1-103.2-193.7-129.4-244
		C467.6,8525,258.3,7924,151.5,7387.3c-54.4-276.5-110.3-717-122.3-970.9c-13.4-290.6-14.1-746.7,0-932
		c32.5-434.2,108.2-860.5,214.3-1192.9c50.2-159.1,209.3-586.9,269.4-727.6c116-267.3,343.7-671.8,524-932.7
		c160.5-231.2,233.3-319.6,416.5-502.8c173.9-173.9,234.1-224.2,244-205.8c8.5,18.4-24.7,77.1-141.4,251.7
		c-60.8,90.5-123.7,184.6-139.3,207.2c-21.9,33.2-11.3,24,48.8-43.1c41.7-47.4,149.9-159.8,240.4-250.3
		c180.3-180.3,203.6-195.2,184.6-120.9c-7.1,31.1-35.4,76.4-100.4,165.5l-89.8,122.3l130.8-139.3c89.1-93.3,155.6-157,205.1-195.2
		c73.5-55.2,74.2-55.9,61.5-24.7c-9.2,23.3-136.5,184.6-178.2,226.3c-1.4,1.4,2.1,7.8,7.8,13.4c17.7,17.7-62.2,152.7-258.1,436.3
		c-103.9,149.2-220.6,322.4-258.8,384.7c-78.5,128-154.9,266.6-146.4,266.6c3.5,0.7,26.2-29,50.9-65.1
		c52.3-77.8,48.8-72.8,57.3-64.3c4.2,4.2,1.4,12.7-5.7,19.8c-7.8,9.2-2.8,9.9,19.1,3.5c16.3-4.9,31.1-4.2,33.2,2.1
		c0.7,6.4-8.5,43.8-20.5,82.7c-14.1,42.4-17.7,65.8-8.5,58c8.5-8.5,20.5-14.8,27.6-14.8c7.8-0.7,45.3-38.2,84.9-84.9
		c100.4-116,197.3-191.6,217.8-171.1c9.2,9.2-20.5,79.9-113.1,265.9c-90.5,185.3-94,194.5-68.6,181.7c13.4-6.4,11.3,9.9-11.3,67.9
		c-63.6,169.7-203.6,606.7-241.8,758c-49.5,192.3-66.5,285.7-131.5,735.4c-69.3,482.2-88.4,680.9-96.9,1047.2
		c-4.2,181,0.7,205.8,14.8,78.5c26.9-229.1,71.4-374.1,105.4-340.1c12.7,12.7,29.7,145.7,50.9,403.1
		c62.9,775.7,153.4,1253.7,340.8,1790.4c203.6,586.9,495,1100.3,919.2,1623.5c106.8,130.8,548.7,572.8,678.8,678.8
		c253.9,205.8,536.7,399.5,776.4,533.2c1562,871.9,3421.7,911.5,5009.9,106.8c342.2-173.9,666.1-388.9,1001.3-664.7
		c132.2-109.6,493.6-470.9,608.1-608.1c440.5-529.6,765.1-1111.6,992.1-1779.8c301.9-886,364.9-1838.5,183.8-2771.9
		c-203.6-1045.1-687.3-1958.7-1480.7-2797.3c-630-666.8-1385.2-1139.1-2323.6-1452.4c-149.2-50.2-101.8-48.1,67.9,2.8
		c708.5,212.1,1350.6,560,1962.9,1063.5c139.3,115.3,591.1,567.1,707.1,707.1c866.2,1052.9,1303.9,2247.2,1316.6,3596.3
		c0.7,145-2.1,333-7.8,416.5c-13.4,207.2-12.7,219.2,7.8,92.6c4.9-30.4,14.8-60.1,21.9-65.8c18.4-14.1,37.5-355.7,34.6-600.3
		c-7.8-542.4-84.1-1055.7-234.1-1552.1c-81.3-269.4-283.5-713.5-470.2-1030.3c-226.3-384.7-425.7-647.7-804.7-1060.7
		c-94.8-103.2-195.9-217.1-223.4-253.1c-126.6-160.5-581.2-523.3-915.7-729c-775-476.6-1651.8-765.1-2580.9-848.5
		c-154.9-13.4-550.1-19.8-816.7-12c-213.5,5.7-478,35.4-715.6,80.6c-60.8,11.3-109.6,17.7-109.6,13.4c0-21.2,433.5-87,682.4-103.9
		c70-4.9,181-12.7,246.8-17.7c167.6-12,613.8-5.7,799,9.9c746.7,67.9,1443.9,268.7,2102.2,606c193,98.3,468.8,263.8,633.6,377.6
		c63.6,45.3,135.8,94.8,158.4,110.3c24.7,17.7,33.9,21.2,23.3,9.2c-36.1-38.9-315.4-230.5-492.1-336.6
		c-339.4-205.1-709.2-378.3-1076.2-503.5c-897.3-306.2-1789.7-391-2704.7-255.3c-96.2,14.1-174.7,23.3-174.7,19.1
		c-0.7-7.8,125.9-29.7,301.9-51.6c801.2-99.7,1606.5-33.9,2360.3,193.7c957.4,289.9,1835.6,837.2,2548.4,1588.2
		c93.3,97.6,194.5,205.8,225.6,241.1l57.3,62.9l-52.3-72.1c-96.9-132.2-263-316.8-458.9-512.7c-439.1-437.7-821-716.3-1324.4-966.6
		c-461-229.1-1051.5-423.6-1552.8-511.9c-1217.6-215-2460.7-55.2-3518.6,451.1c-177.5,85.6-184.6,65.8-8.5-22.6
		C4837.5,533.3,5914.4,324.7,6956,397.5c56.6,4.2,104.7,5.7,106.1,4.2c2.1-2.1-29.7-7.1-70.7-9.9
		c-458.9-40.3-907.9-28.3-1362.6,36.1c-371.9,52.3-666.8,125.2-1129.2,277.9c-178.9,58.7-334.5,106.8-345.8,106.8
		c-17,0-18.4-1.4-6.4-13.4c17-17,75-48.1,164.8-88.4c36.1-16.3,67.9-33.9,69.3-39.6c7.1-31.1,632.2-207.9,977.2-275.8
		c621.5-122.3,1315.9-139.3,1963.6-48.8c180.3,26.2,501.3,91.2,681.7,138.6c183.1,48.8,207.9,52.3,84.9,14.1
		c-292-92.6-734.7-176.1-1105.9-209.3c-581.9-53-1144.1-24-1704.8,88.4c-203.6,39.6-429.2,96.9-429.2,106.8
		c0,11.3-127.3,50.9-160.5,48.8c-15.6,0-65.1,14.1-108.9,32.5c-43.8,18.4-128.7,48.1-188.1,66.5c-217.1,65.8-636.4,263-932.7,437.7
		c-380.4,224.9-675.3,441.9-1001.3,739.6c-216.4,196.6-234.1,210-108.2,82.7c303.3-310.4,766.5-653.4,1219.1-903.7
		c520.4-287.1,1094.6-500.6,1666.7-618.7c92.6-19.1,170.4-40.3,171.8-46c4.2-21.2,241.8-58,627.9-97.6c26.9-2.8,12.7-7.1-44.5-12
		c-95.5-9.2-99.7-23.3-13.4-44.5l58.7-14.8l-67.9,2.8c-111,3.5-425,40.3-601.7,70c-549.4,92.6-1122.2,270.8-1612.2,502
		c-74.2,34.6-148.5,69.3-164,76.4l-29,13.4l27.6-21.9c14.8-12,103.2-58,195.2-101.8c824.5-390.3,1720.4-593.3,2631.1-594.7
		c288.5,0,434.9,7.8,724.1,39.6c313.2,34.6,460.3,57.3,700,106.1C8853.8,452.7,9769.6,904.5,10558.7,1589
		c163.3,142.1,472.3,455.4,617.3,625.8c488.6,573.5,870.4,1241,1115.8,1950.2c210,606,342.9,1301.8,360.6,1885.1
		c2.8,77.8,6.4,142.1,7.8,143.5c12,12,23.3-75.7,20.5-164.8c-12.7-551.5-142.8-1251.6-336.6-1806
		c-308.3-885.3-782.1-1646.1-1451-2334.9c-680.2-698.6-1478.6-1208.4-2403.5-1533.7C7547.1,22.7,6543-76.3,5541.8,65.2
		C4432.3,221.4,3435.3,641.5,2567,1318.9c-188.8,147.8-304.8,232.6-314.7,229.8c-33.9-8.5,210-232.6,433.5-398.1
		c855.6-636.4,1857.6-1043,2903.4-1179.5C6623.6-163.9,7697-33.8,8675,344.5c1130,437,2069.7,1154.7,2815,2148.9
		c437,582.7,801.2,1321.6,1000.6,2031.5c249.6,883.2,303.3,1744.4,169,2679.2c-101.8,711.3-363.5,1468-737.5,2133.3
		c-282.1,501.3-586.9,902.3-1072,1410c-51.6,53,19.1-16.3,155.6-155.6c166.9-168.3,282.1-293.4,347.9-373.4
		c661.1-813.9,1081.2-1668.1,1309.6-2663c25.5-110.3,48.1-200.8,51.6-200.1c10.6-0.7-5.7,108.9-37.5,255.3
		c-196.6,891-593.3,1730.3-1169.6,2479.1c-227.7,295.6-611.6,703.6-868.3,920.7c-563.6,478.7-1135.6,828.7-1754.3,1074.1
		c-66.5,26.9-159.1,67.2-205.8,89.8c-432.7,215-1154.7,395.3-1806,451.1c-227,19.1-668.9,19.8-883.2-0.7
		c-371.2-34.6-786.3-107.5-1004.1-176.8c-445.5-142.8-618.7-205.8-881.1-321c-72.8-31.8-204.4-88.4-291.3-125.9
		c-476.6-200.8-948.9-493.6-1427.6-884.6C2207,10970.2,1755.2,10525.4,1605.3,10348.6z M694.5,8727.9
		c-292-676.7-481.5-1436.1-532.5-2133.3c-13.4-187.4-18.4-548.7-9.9-753.8c5.7-134.4,1.4-127.3-14.8,27.6
		c-43.1,412.2,13.4,1072.7,140.7,1635.5c87.7,390.3,246.8,884.6,371.9,1155.4C690.3,8746.3,727.1,8802.9,694.5,8727.9z M527,7744.3
		c0.7-10.6-9.9-65.1-24.7-122.3c-111-439.1-177.5-1035.9-164.8-1464.4c4.9-156.3-2.8-579.8-9.2-515.5c-2.8,24-8.5,132.9-13.4,241.1
		c-24.7,577.7,32.5,1161.1,171.1,1736.7c18.4,75,34.6,137.9,36.1,139.3C524.1,7761.3,525.5,7754.2,527,7744.3z M442.1,4758.9
		c1.4-1.4,11.3-36.8,21.2-77.8c22.6-94.8,82.7-276.5,146.4-441.9c26.9-70.7,48.8-142.1,49.5-158.4c2.1-57.3,206.5-575.6,299.1-757.3
		c32.5-62.2,44.5-101.1,26.9-83.4c-26.9,26.9-199.4,397.4-278.6,596.8c-94,236.9-195.9,569.2-265.9,861.3
		C430.1,4744.1,430.1,4771,442.1,4758.9z M807,3777.5c80.6-196.6,273.7-581.9,379-756.6c79.9-132.2,222-338,362-526.1
		c43.8-59.4,81.3-115.3,82-123c1.4-8.5,6.4-23.3,12-33.2c20.5-37.5-64.3,71.4-195.9,251c-147.1,199.4-258.1,376.9-386.8,617.3
		c-123,227.7-325.3,677.4-299.8,664.7C765.3,3868.7,786.5,3826.3,807,3777.5z M1385.4,2439.6c3.5-7.8-0.7-7.8-8.5,0
		c-8.5,7.1-10.6,13.4-5.7,12.7C1375.5,2452.4,1382.6,2446.7,1385.4,2439.6z M1728.3,2277.7c14.8-20.5,21.2-35.4,14.8-31.8
		c-7.1,2.8-29,26.2-47.4,51.6c-21.9,29-27.6,40.3-14.8,31.8C1691.6,2321.5,1713.5,2298.2,1728.3,2277.7z M6828.7,261.7
		c791.3,51.6,1563.4,262.3,2271.9,618.7c333,167.6,680.9,389.6,1013.3,645.6c111.7,86.3,159.8,118.8,262.3,178.9
		c50.9,29.7-54.4-62.9-219.2-192.3C9089.3,675.4,7786.1,226.4,6465.9,241.2l-171.8,2.1l188.1,4.2
		C6585.5,249,6741,256.1,6828.7,261.7z M9878.4,1704.9c-3.5-6.4-13.4-16.3-21.2-21.2c-9.2-4.9-6.4,0.7,4.9,12
		C9874.2,1707.8,9880.6,1711.3,9878.4,1704.9z"/>
	<path style="fill:#DADADA;" d="M12760.6,7062c82-687.3,55.2-1357.6-82-2030.8c-190.2-938.3-582.7-1810.2-1146.2-2551.9
		c-121.6-161.2-137.9-184.6-123-176.8c19.8,8.5,208.6,259.5,321,424.3c541.6,800.4,891,1707,1028.8,2676.4
		c62.2,431.3,78.5,878.9,49.5,1312.4c-13.4,194.5-41.7,432-51.6,432C12753.5,7148.3,12755,7108.7,12760.6,7062z"/>
</g>
<path style="fill:none;" d="M235.8,453.3v371.2c0,29.4,15.7,56.6,41.2,71.3l321.4,185.6c25.5,14.7,56.9,14.7,82.3,0l321.4-185.6
	c25.5-14.7,41.2-41.9,41.2-71.3V453.3c0-29.4-15.7-56.6-41.2-71.3L680.8,196.4c-25.5-14.7-56.9-14.7-82.3,0L277,382
	C251.5,396.7,235.8,423.9,235.8,453.3z"/>
<g>
	
		<linearGradient id="SVGID_1_" gradientUnits="userSpaceOnUse" x1="835.2729" y1="692.3642" x2="1088.4558" y2="368.3048" gradientTransform="matrix(0.8974 0 0 -0.8974 31.5897 1176.6177)">
		<stop  offset="0" style="stop-color:#3B009B"/>
		<stop  offset="1" style="stop-color:#390086"/>
	</linearGradient>
	<polygon style="fill:url(#SVGID_1_);" points="826.2,646 851,646 854.2,615.5 829.3,615.5 	"/>
	
		<linearGradient id="SVGID_2_" gradientUnits="userSpaceOnUse" x1="887.2803" y1="732.9969" x2="1140.4633" y2="408.9375" gradientTransform="matrix(0.8974 0 0 -0.8974 31.5897 1176.6177)">
		<stop  offset="0" style="stop-color:#3B009B"/>
		<stop  offset="1" style="stop-color:#390086"/>
	</linearGradient>
	<path style="fill:url(#SVGID_2_);" d="M1026.1,409.9L635.9,635.7L1029,863.2c7.4-13,11.5-27.8,11.5-43.3v-362
		C1040.5,440.5,1035.4,423.9,1026.1,409.9z M898.3,615.5h-22l-3.1,30.5h19v21.2H871l-3.9,37.7h-22.4l4-37.7H824l-3.9,37.7h-22.4
		l4-37.7h-19.3V646h21.6l3.2-30.5h-18.7v-21.2h20.9l3.7-34.4h22l-3.6,34.4h25l3.7-34.4h22l-3.6,34.4h19.8V615.5z"/>
	<linearGradient id="SVGID_3_" gradientUnits="userSpaceOnUse" x1="470.805" y1="1076.1775" x2="744.1277" y2="726.3405">
		<stop  offset="0" style="stop-color:#340084"/>
		<stop  offset="1" style="stop-color:#290064"/>
	</linearGradient>
	<path style="fill:url(#SVGID_3_);" d="M731.1,885.2c-118,44.4-261.2-0.9-326.8-115.5L249,859.6c7.5,14.7,19.2,27.2,33.9,35.7
		l313.5,181c26.9,15.5,60.1,15.5,87,0l313.5-181c5-2.9,9.7-6.3,14-10H731.1z"/>
	
		<linearGradient id="SVGID_4_" gradientUnits="userSpaceOnUse" x1="726.6183" y1="607.4739" x2="979.8011" y2="283.4146" gradientTransform="matrix(0.8974 0 0 -0.8974 31.5897 1176.6177)">
		<stop  offset="0" style="stop-color:#3B009B"/>
		<stop  offset="1" style="stop-color:#390086"/>
	</linearGradient>
	<path style="fill:url(#SVGID_4_);" d="M626.9,640.9v128c44.8,3.3,92-16.4,123.6-66.9l115.4,66.8c-33.5,58.2-81.6,96.4-134.7,116.4
		H1011c7.2-6.3,13.3-13.8,18-22L635.9,635.7L626.9,640.9z"/>
	<linearGradient id="SVGID_5_" gradientUnits="userSpaceOnUse" x1="517.5103" y1="1112.6677" x2="790.833" y2="762.8306">
		<stop  offset="0" style="stop-color:#340084"/>
		<stop  offset="1" style="stop-color:#290064"/>
	</linearGradient>
	<path style="fill:url(#SVGID_5_);" d="M635.9,635.7l-9,5.2l-106.7,61.8c22.7,38.7,63.6,63.1,106.7,66.3
		c44.8,3.3,92-16.4,123.6-66.9l115.4,66.8c-33.5,58.2-81.6,96.4-134.7,116.4H1011c7.2-6.3,13.3-13.8,18-22L635.9,635.7z"/>
	
		<linearGradient id="SVGID_6_" gradientUnits="userSpaceOnUse" x1="885.689" y1="731.7535" x2="1138.8718" y2="407.6942" gradientTransform="matrix(0.8974 0 0 -0.8974 31.5897 1176.6177)">
		<stop  offset="0" style="stop-color:#3B009B"/>
		<stop  offset="1" style="stop-color:#390086"/>
	</linearGradient>
	<path style="fill:url(#SVGID_6_);" d="M865.8,502.1l-115.4,66.8c-29.5-48.8-77.5-69.5-123.6-66.5v128.1l9,5.2l390.2-225.8
		c-1.2-1.8-2.5-3.6-3.8-5.3H767.8C804.8,426.2,838.6,458.3,865.8,502.1z"/>
	
		<linearGradient id="SVGID_7_" gradientUnits="userSpaceOnUse" x1="596.6838" y1="577.4659" x2="865.854" y2="232.9439" gradientTransform="matrix(0.8974 0 0 -0.8974 31.5897 1176.6177)">
		<stop  offset="0" style="stop-color:#340084"/>
		<stop  offset="1" style="stop-color:#290064"/>
	</linearGradient>
	<path style="fill:url(#SVGID_7_);" d="M520.1,568.7c-10.6,18.7-17.3,41.1-18.4,66.7c0.4,25.3,7.2,48,18.4,67.2l106.7-61.8v-10.4
		L520.1,568.7z"/>
	
		<linearGradient id="SVGID_8_" gradientUnits="userSpaceOnUse" x1="396.4507" y1="421.0266" x2="665.6208" y2="76.5046" gradientTransform="matrix(0.8974 0 0 -0.8974 31.5897 1176.6177)">
		<stop  offset="0" style="stop-color:#340084"/>
		<stop  offset="1" style="stop-color:#290064"/>
	</linearGradient>
	<path style="fill:url(#SVGID_8_);" d="M368.4,635.5c-0.2-29.7,4.2-57.4,12.3-83H239.5v267.4c0,14,3.4,27.6,9.6,39.7l155.3-89.9
		C382.8,732.2,369.7,687.2,368.4,635.5z"/>
	
		<linearGradient id="SVGID_9_" gradientUnits="userSpaceOnUse" x1="686.6989" y1="576.2855" x2="939.8817" y2="252.2261" gradientTransform="matrix(0.8974 0 0 -0.8974 31.5897 1176.6177)">
		<stop  offset="0" style="stop-color:#3B009B"/>
		<stop  offset="1" style="stop-color:#390086"/>
	</linearGradient>
	<polygon style="fill:url(#SVGID_9_);" points="626.9,640.9 635.9,635.7 626.9,630.5 	"/>
	
		<linearGradient id="SVGID_10_" gradientUnits="userSpaceOnUse" x1="652.007" y1="620.689" x2="921.1771" y2="276.167" gradientTransform="matrix(0.8974 0 0 -0.8974 31.5897 1176.6177)">
		<stop  offset="0" style="stop-color:#340084"/>
		<stop  offset="1" style="stop-color:#290064"/>
	</linearGradient>
	<polygon style="fill:url(#SVGID_10_);" points="626.9,640.9 635.9,635.7 626.9,630.5 	"/>
	
		<linearGradient id="SVGID_11_" gradientUnits="userSpaceOnUse" x1="-1787901.875" y1="2289640.5" x2="64589.0273" y2="-81441.4062">
		<stop  offset="0" style="stop-color:#A47EDE"/>
		<stop  offset="1" style="stop-color:#9866D3"/>
	</linearGradient>
	<path style="fill:url(#SVGID_11_);" d="M1022.3,404.6c-6.8-8.8-15.3-16.3-25.3-22.1l-313.5-181c-26.9-15.5-60.1-15.5-87,0
		L283,382.5c-26.9,15.5-43.5,44.3-43.5,75.4v94.6v267.4c0,14,3.4,27.6,9.6,39.7l155.3-89.9c-21.5-37.5-34.7-82.5-35.9-134.2
		c-0.2-29.7,4.2-57.4,12.3-83c50.1-158.1,243.2-232.1,387.1-147.9c37,21.7,70.7,53.7,98,97.6l-115.4,66.8
		c-29.5-48.8-77.5-69.5-123.6-66.5c-42.8,2.8-83.8,26.1-106.7,66.4c-10.6,18.7-17.3,41.1-18.4,66.7c0.4,25.3,7.2,48,18.4,67.2
		l106.7-61.8l9-5.2l390.2-225.8C1024.9,408.1,1023.6,406.3,1022.3,404.6z"/>
</g>
</svg>
